# xmcd
#
# Track frame offsets:
#	150
#	5100
#	44310
#	62975
#	78920
#	98020
#	131345
#	182720
#	205445
#
# Disc length: 3010 seconds
#
# Revision: 1
# Processed by: cddbd v1.5.1PL0 Copyright (c) Steve Scherf et al.
# Submitted via: EasyCDDAExtractor 5.1.0
#
DISCID=760bc009
DTITLE=Black Sabbath - Minneapolis 31-10-92 Disc 2
DYEAR=1992
DGENRE=Hard Rock
TTITLE0=Guitar Solo
TTITLE1=Black Sabbath
TTITLE2=Master Of Insanity
TTITLE3=After All (The Dead)
TTITLE4=Drum Solo
TTITLE5=Iron Man
TTITLE6=Heaven and Hell
TTITLE7=Neon Knights
TTITLE8=Paranoid
EXTD=
EXTT0=
EXTT1=
EXTT2=
EXTT3=
EXTT4=
EXTT5=
EXTT6=
EXTT7=
EXTT8=
PLAYORDER=
